# xmcd
#
# Track frame offsets:
#	150
#	21236
#	42140
#	63621
#	81735
#	104977
#	120223
#	138446
#
# Disc length: 2047 seconds
#
# Revision: 1
# Processed by: cddbd v1.5.2PL0 Copyright (c) Steve Scherf et al.
# Submitted via: audiograbber 1.83.01
#
DISCID=7207fd08
DTITLE=Franny Hall - Take You Home
DYEAR=2002
DGENRE=Rock
TTITLE0=Obstinate Delusion
TTITLE1=Song About You
TTITLE2=Happy Daze
TTITLE3=I'll Take You Home
TTITLE4=The Heart Beats Strong
TTITLE5=Look Me In The Eye
TTITLE6=Set Me Free
TTITLE7=The Good Ol' Days
EXTD=
EXTT0=
EXTT1=
EXTT2=
EXTT3=
EXTT4=
EXTT5=
EXTT6=
EXTT7=
PLAYORDER=
